# xmcd
#
# Track frame offsets:
#	150
#	18469
#	41987
#	61083
#	79139
#	96583
#	116372
#	133802
#	153171
#	175181
#	187297
#	196887
#	225869
#	237774
#	250111
#
# Disc length: 3637 seconds
#
# Revision: 0
# Processed by: cddbd v1.5.1PL2 Copyright (c) Steve Scherf et al.
# Submitted via: EasyCDDAExtractor 9.0.0.1
#
DISCID=c20e330f
DTITLE=Various Artist - Lucerne Blues Festival 2004 CD2
DYEAR=2004
DGENRE=Blues
TTITLE0=Darrell Nulisch - Time Like These
TTITLE1=Billy Flynn with Bob Stroger and His Chicago Blues Legends - Lovin' Man
TTITLE2=Rod Piazza and The Mighty Flyers - Ain't Nothing Shakin'
TTITLE3=Hubert Sumlin - I'm Coming Home
TTITLE4=Texas Johnny Brown And The Quality Blues Band - Handy Man
TTITLE5=Sam Myers - I'm Tired Of Your Jive
TTITLE6=Tom Holland-James Cotten Blues Band - Don't Know Why I Love You
TTITLE7=Nora Jean Bruso - Broken Heart
TTITLE8=W. C. Clark - My Texas Home
TTITLE9=Cary Bell with Bob Margolin All Star Blues Jam - One Day You're Gonna 
TTITLE9=Get Lucky
TTITLE10=Floyd Lee and His Mean Blues Band feat. Sam Carr - You Don't Have To Go
TTITLE11=Matthew Skoller Blues Band feat. Lurrie Bell - Let The World Come To 
TTITLE11=You
TTITLE12=Anson Funderburgh and The Rockets With Sam Myers - The Last Time
TTITLE13=Johnny Moeller - Dallas
TTITLE14=Jimmy Dawkins - Tell Me Baby
EXTD=
EXTT0=
EXTT1=
EXTT2=
EXTT3=
EXTT4=
EXTT5=
EXTT6=
EXTT7=
EXTT8=
EXTT9=
EXTT10=
EXTT11=
EXTT12=
EXTT13=
EXTT14=
PLAYORDER=
